<?xml version="1.0" encoding="iso-8859-1"?>
<!-- Generator: Adobe Illustrator 19.0.0, SVG Export Plug-In . SVG Version: 6.00 Build 0)  -->
<svg version="1.1" id="Layer_1" xmlns="http://www.w3.org/2000/svg" xmlns:xlink="http://www.w3.org/1999/xlink" x="0px" y="0px"
	 viewBox="0 0 290.625 290.625" style="enable-background:new 0 0 290.625 290.625;" xml:space="preserve">
<g>
	<g>
		<path style="fill:#333333;" d="M84.375,206.25v-14.063h4.688c12.923,0,23.438-10.514,23.438-23.438
			c0-12.923-10.514-23.438-23.438-23.438h-18.75c-7.753,0-14.063-6.309-14.063-14.063s6.309-14.062,14.063-14.062h18.75
			c7.753,0,14.063,6.309,14.063,14.062v4.688h9.375v-4.688c0-12.923-10.514-23.437-23.438-23.437h-4.688V93.75H75v14.063h-4.688
			c-12.923,0-23.438,10.514-23.438,23.437s10.514,23.438,23.438,23.438h18.75c7.753,0,14.063,6.309,14.063,14.063
			s-6.309,14.063-14.063,14.063h-18.75c-7.753,0-14.063-6.309-14.063-14.063v-4.688h-9.375v4.688
			c0,12.923,10.514,23.438,23.438,23.438H75v14.063h9.375V206.25z"/>
		<path style="fill:#333333;" d="M290.625,135.938v-32.812h-14.063V89.063h9.375V56.25H182.813v23.438h-9.375V112.5H187.5v14.063
			h-9.375v32.812h9.375v14.063h-18.75v32.813h9.375v14.063h-71.77c30.844-11.006,53.02-40.425,53.02-75
			c0-25.687-12.427-49.594-32.949-64.481c2.934-2.578,4.823-6.314,4.823-10.519c0-7.045-5.222-12.844-11.991-13.852
			c7.716-9.169,11.991-20.719,11.991-33.023v-9.375C131.25,6.31,124.941,0,117.188,0s-14.063,6.309-14.063,14.063
			c0,2.588-2.1,4.688-4.688,4.688c-2.588,0-4.688-2.1-4.688-4.688C93.75,6.31,87.441,0,79.688,0S65.625,6.31,65.625,14.063
			c0,2.588-2.1,4.688-4.688,4.688s-4.688-2.1-4.688-4.688C56.25,6.31,49.941,0,42.188,0S28.125,6.31,28.125,14.063v9.375
			c0,12.3,4.275,23.855,11.991,33.023c-6.769,1.008-11.991,6.806-11.991,13.852c0,4.205,1.889,7.941,4.823,10.519
			C12.427,95.719,0,119.625,0,145.313c0,34.575,22.177,63.994,53.02,75H0v35.934c0,18.956,15.422,34.378,34.378,34.378h221.869
			c18.956,0,34.378-15.422,34.378-34.378v-35.934h-9.375v-23.438h-9.375v-14.063h18.75V150h-9.375v-14.063h9.375V135.938z
			 M37.5,14.063c0-2.588,2.1-4.688,4.688-4.688s4.688,2.1,4.688,4.688c0,7.753,6.309,14.063,14.063,14.063S75,21.816,75,14.063
			c0-2.588,2.1-4.688,4.688-4.688s4.688,2.1,4.688,4.688c0,7.753,6.309,14.063,14.063,14.063s14.061-6.31,14.061-14.063
			c0-2.588,2.1-4.688,4.688-4.688c2.588,0,4.688,2.1,4.688,4.688v9.375c0,12.867-5.723,24.741-15.755,32.813H53.259
			c-10.036-8.072-15.755-19.945-15.755-32.813v-9.375H37.5z M42.188,65.625h7.903h59.199h7.898c2.588,0,4.688,2.1,4.688,4.688
			S119.775,75,117.188,75h-0.005H42.192h-0.005C39.6,75,37.5,72.9,37.5,70.313S39.6,65.625,42.188,65.625z M9.375,145.313
			c0-25.144,13.481-48.38,35.259-60.937h70.102c21.778,12.558,35.259,35.794,35.259,60.937c0,38.77-31.542,70.313-70.313,70.313
			S9.375,184.083,9.375,145.313z M281.25,112.5v14.063h-14.063V112.5h9.375H281.25z M243.75,173.438v-14.063h14.063v14.063H243.75z
			 M234.375,220.313V206.25h14.063v14.063H234.375z M215.625,182.813v14.063h-14.063v-14.063H215.625z M257.813,112.5v14.063H243.75
			V112.5H257.813z M229.688,103.125V89.063h14.063v14.063h-14.063V103.125z M239.063,79.688V65.625h14.063v14.063H239.063z
			 M229.688,79.688h-14.063V65.625h14.063V79.688z M220.313,89.063v14.063H206.25V89.063H220.313z M234.375,112.5v14.063h-14.063
			V112.5H234.375z M225,135.938V150h-14.063v-14.063H225V135.938z M234.375,159.375v14.063h-14.063v-14.063H234.375z M225,206.25
			v14.063h-14.063V206.25H225z M225,196.875v-14.063h14.063v14.063H225z M234.375,150v-14.063h14.063V150H234.375z M267.188,103.125
			h-14.063V89.063h14.063V103.125z M276.563,79.688H262.5V65.625h14.063V79.688z M192.188,65.625h14.063v14.063h-14.063V65.625z
			 M182.813,103.125V89.063h14.063v14.063H187.5h-4.687V103.125z M196.875,112.5h14.063v14.063h-14.063V112.5z M187.5,135.938
			h14.063V150H187.5V135.938z M196.875,159.375h14.063v14.063h-14.063V159.375z M178.125,182.813h9.375h4.688v14.063h-14.063
			V182.813z M187.5,206.25h14.063v14.063H187.5V206.25z M281.25,243.75h-60.938v9.375h60.938v3.122
			c0,13.786-11.217,25.003-25.003,25.003H34.378c-13.786,0-25.003-11.217-25.003-25.003v-3.122H206.25v-9.375H9.375v-14.063h168.75
			H281.25V243.75z M271.875,220.313h-14.063V206.25h14.063V220.313z M262.5,196.875h-14.063v-14.063H262.5V196.875z M281.25,173.438
			h-9.375h-4.688v-14.063h14.063V173.438z M271.875,150h-14.063v-14.063h14.063V150z"/>
		<rect x="9.375" y="229.688" style="fill:#F9BA48;" width="271.875" height="14.063"/>
	</g>
</g>
<g>
</g>
<g>
</g>
<g>
</g>
<g>
</g>
<g>
</g>
<g>
</g>
<g>
</g>
<g>
</g>
<g>
</g>
<g>
</g>
<g>
</g>
<g>
</g>
<g>
</g>
<g>
</g>
<g>
</g>
</svg>
