<?xml version="1.0" encoding="iso-8859-1"?>
<!-- Generator: Adobe Illustrator 19.0.0, SVG Export Plug-In . SVG Version: 6.00 Build 0)  -->
<svg version="1.1" id="Layer_1" xmlns="http://www.w3.org/2000/svg" xmlns:xlink="http://www.w3.org/1999/xlink" x="0px" y="0px"
	 viewBox="0 0 292.43 292.43" style="enable-background:new 0 0 292.43 292.43;" xml:space="preserve">
<g>
	<g>
		<polygon style="fill:#F9BA48;" points="113.4,169.652 89.963,183.714 80.588,211.839 99.338,221.214 80.588,235.277 
			118.088,286.839 141.572,286.839 		"/>
		<polygon style="fill:#F9BA48;" points="179.025,169.652 202.463,183.714 211.838,211.839 193.088,221.214 211.838,235.277 
			174.338,286.839 150.853,286.839 		"/>
		<path style="fill:#333333;" d="M283.608,241.563c-4.092-23.198-21.469-42.009-44.217-47.911l-35.691-9.773l-2.47,9.047
			l35.752,9.788c19.261,4.997,33.938,20.888,37.402,40.481l6.867,38.958H156.849l26.738-111.408l-0.07-0.019
			c30.506-14.147,51.759-44.981,51.759-80.761c0-49.111-39.952-89.063-89.063-89.063S57.15,40.853,57.15,89.964
			c0,35.78,21.253,66.614,51.759,80.766l-0.07,0.019l26.738,111.403H11.175l6.872-38.962c3.459-19.594,18.136-35.48,37.458-40.495
			l35.691-9.773l-2.47-9.047l-35.634,9.759c-22.805,5.916-40.181,24.722-44.274,47.925L0,291.527h292.43L283.608,241.563z
			 M150.9,166.141v-34.659c8.658,0.516,17.095,2.423,25.05,5.634C168.075,152.434,157.632,161.529,150.9,166.141z M150.9,122.064
			V94.652h35.424c-0.492,13.247-2.902,24.469-6.459,33.769C170.728,124.689,160.95,122.589,150.9,122.064z M189.727,73.038
			c-2.067,0-3.75-1.678-3.75-3.75s1.678-3.75,3.75-3.75s3.75,1.678,3.75,3.75S191.799,73.038,189.727,73.038z M186.235,81.878
			c0.075,1.125,0.141,2.25,0.183,3.398H150.9V57.864c10.017-0.52,19.763-2.606,28.875-6.314c0.867,2.241,1.664,4.589,2.395,7.045
			c-3.356,2.381-5.564,6.277-5.564,10.692C176.602,75.306,180.699,80.341,186.235,81.878z M117.014,27.077
			c0-2.067,1.678-3.75,3.75-3.75s3.755,1.678,3.755,3.75s-1.683,3.75-3.755,3.75S117.014,29.144,117.014,27.077z M150.9,48.489
			V13.891c6.722,4.716,17.217,13.861,25.078,29.067C168.052,46.155,159.596,47.983,150.9,48.489z M164.157,12.391
			c12.694,2.939,24.23,8.888,33.806,17.1c-4.214,3.614-8.723,6.764-13.505,9.394C178.369,26.922,170.817,18.33,164.157,12.391z
			 M125.639,14.917c-1.148-0.464-2.386-0.722-3.67-0.839c2.091-0.67,4.233-1.214,6.394-1.711
			C127.467,13.164,126.563,14.017,125.639,14.917z M110.236,34.839c-0.769,1.341-1.542,2.677-2.245,4.055
			c-4.791-2.63-9.309-5.789-13.528-9.408c4.936-4.228,10.397-7.837,16.266-10.772c-1.898,2.278-3.089,5.166-3.089,8.358
			C107.639,29.992,108.624,32.659,110.236,34.839z M118.121,39.934c0.853,0.173,1.739,0.267,2.644,0.267
			c7.238,0,13.13-5.887,13.13-13.125c0-2.077-0.53-4.017-1.392-5.766c3.323-3.192,6.436-5.644,9.023-7.444v34.623
			c-8.7-0.506-17.161-2.334-25.088-5.536C116.963,41.927,117.549,40.938,118.121,39.934z M141.525,57.864v27.412h-35.484
			c0.45-12.244,2.658-23.522,6.595-33.736C121.753,55.258,131.503,57.344,141.525,57.864z M141.525,94.652v27.417
			c-0.328,0.019-0.656,0.028-0.984,0.047c-2.236-4.055-6.502-6.834-11.452-6.834c-6.788,0-12.323,5.203-12.994,11.822
			c-1.158,0.417-2.302,0.858-3.441,1.322c-3.609-9.319-6.056-20.55-6.553-33.778h35.423L141.525,94.652L141.525,94.652z
			 M132.844,128.411c0,2.067-1.683,3.75-3.755,3.75c-2.072,0-3.75-1.678-3.75-3.75c0-2.072,1.678-3.755,3.75-3.755
			C131.161,124.656,132.844,126.344,132.844,128.411z M118.636,136.263c2.395,3.183,6.169,5.273,10.453,5.273
			c5.827,0,10.725-3.839,12.431-9.108v33.637c-6.684-4.673-17.081-13.842-24.938-29.02
			C117.267,136.773,117.952,136.516,118.636,136.263z M128.128,167.505c-12.623-2.944-24.094-8.864-33.628-17.025
			c4.163-3.558,8.653-6.684,13.434-9.323C113.977,153.003,121.486,161.58,128.128,167.505z M184.491,141.161
			c4.763,2.616,9.263,5.719,13.448,9.305c-9.539,8.166-21.014,14.095-33.642,17.039
			C170.935,161.585,178.449,153.003,184.491,141.161z M204.703,143.898c-5.063-4.425-10.509-8.273-16.322-11.409
			c4.078-10.425,6.914-22.941,7.411-37.838h29.864C224.55,113.608,216.821,130.77,204.703,143.898z M225.661,85.277h-29.869
			c-0.047-1.453-0.127-2.878-0.22-4.298c4.298-2.156,7.284-6.562,7.284-11.691c0-6.708-5.081-12.197-11.583-12.97
			c-0.9-3.089-1.898-6.028-2.991-8.817c5.85-3.15,11.334-7.017,16.43-11.475C216.821,49.159,224.55,66.32,225.661,85.277z
			 M87.722,36.03c5.095,4.453,10.575,8.325,16.425,11.47c-4.509,11.452-7.017,24.084-7.481,37.777H66.764
			C67.875,66.32,75.605,49.159,87.722,36.03z M66.764,94.652h29.864c0.502,14.897,3.338,27.417,7.416,37.842
			c-5.845,3.159-11.358,6.956-16.383,11.339C75.581,130.714,67.87,113.575,66.764,94.652z M119.485,174.917
			c8.442,2.663,17.419,4.111,26.728,4.111s18.286-1.448,26.728-4.111l-25.739,107.236h-1.983L119.485,174.917z"/>
	</g>
</g>
<g>
</g>
<g>
</g>
<g>
</g>
<g>
</g>
<g>
</g>
<g>
</g>
<g>
</g>
<g>
</g>
<g>
</g>
<g>
</g>
<g>
</g>
<g>
</g>
<g>
</g>
<g>
</g>
<g>
</g>
</svg>
